<?xml version="1.0" encoding="UTF-8"?>
<svg width="419px" height="237px" viewBox="0 0 419 237" version="1.1" xmlns="http://www.w3.org/2000/svg" xmlns:xlink="http://www.w3.org/1999/xlink">
    <!-- Generator: Sketch 54.1 (76490) - https://sketchapp.com -->
    <title>Dim logo</title>
    <desc>Created with Sketch.</desc>
    <g id="Page-2" stroke="none" stroke-width="1" fill="none" fill-rule="evenodd">
        <g id="Home-Copy-7" transform="translate(-753.000000, -411.000000)">
            <g id="Dim-logo" transform="translate(767.000000, 411.000000)">
                <polyline id="Path-2" stroke="#FC6D5C" stroke-width="39.384" stroke-linecap="round" stroke-linejoin="round" points="6.0625 138.638889 384.96875 177.819444 6.0625 217"></polyline>
                <path d="M118.494307,134.417954 L122.610197,134.417954 L117.194552,149.919551 C111.995507,164.501034 101.669781,171.791667 86.2170645,171.791667 C76.9743179,171.791667 70.4756092,169.101919 66.7207434,163.722342 C64.5544746,160.466283 63.4713565,156.431661 63.4713565,151.618356 C63.4713565,149.353271 63.8323959,146.309609 64.5544855,142.487279 C60.0775301,152.538592 55.0229789,159.935399 49.3906801,164.67792 C43.7583814,169.420442 36.6098019,171.791667 27.9447269,171.791667 C19.8573237,171.791667 13.1780953,169.243484 7.90684134,164.147044 C2.63558742,159.050603 0,151.264491 0,140.788473 C0,129.604617 2.92441892,117.323795 8.7733445,103.945638 C14.6222701,90.5674805 23.1427993,79.1714435 34.3351877,69.7571848 C45.5275762,60.3429261 58.5610976,55.6358673 73.4361428,55.6358673 C80.3682028,55.6358673 84.7728831,57.4054383 86.650316,60.9446333 L95.7485992,27.1808817 C96.4706888,24.6326613 96.8317282,22.6507419 96.8317282,21.2350639 C96.8317282,18.4037079 95.7125061,16.3510055 93.4740284,15.0768953 C91.2355507,13.8027851 87.4446373,13.1657396 82.1011745,13.1657396 L83.617555,8.70637618 C95.1709882,8.56480838 105.64113,7.78619716 115.028295,6.37051916 C124.415459,4.95484116 133.513651,2.83135601 142.323144,0 L99.8644892,150.768953 C99.1423997,152.467767 98.7813603,154.095772 98.7813603,155.653018 C98.7813603,158.342806 100.008894,159.68768 102.463999,159.68768 C106.652118,159.68768 110.479136,155.228361 113.945166,146.30959 L118.494307,134.417954 Z M45.7712803,158.448625 C48.8925611,158.448625 52.8650407,154.756701 57.6888383,147.372744 C62.5126358,139.988787 67.1944868,128.842019 71.7345316,113.932106 L84.7161572,65.3686317 C84.1486516,63.5226424 83.3683431,62.1736705 82.3752083,61.3216755 C81.3820735,60.4696805 79.8923937,60.0436893 77.9061241,60.0436893 C73.5079557,60.0436893 68.3295448,64.2681014 62.370736,72.7170522 C56.4119273,81.166003 51.3044535,92.0287769 47.0481615,105.3057 C42.7918695,118.582622 40.6637555,132.249838 40.6637555,146.307756 C40.6637555,150.567731 41.0184411,153.656167 41.7278231,155.573156 C42.4372051,157.490145 43.7850107,158.448625 45.7712803,158.448625 Z M158.689585,76.1705973 C159.410577,74.3207757 159.771068,72.5421278 159.771068,70.8346002 C159.771068,68.4156027 158.761694,67.2061221 156.742916,67.2061221 C154.435741,67.2061221 152.344895,68.2021649 150.470315,70.1942805 C148.595735,72.1863961 146.721184,75.672546 144.846604,80.652835 L139.871783,93.6726681 L135.762148,93.6726681 L141.818452,77.0243569 C147.153794,62.368078 157.896417,55.0400485 174.046641,55.0400485 C181.833357,55.0400485 187.52911,56.8898424 191.13407,60.5894856 C194.739031,64.2891288 196.541485,68.9847594 196.541485,74.6765181 C196.541485,77.8069855 195.9647,81.2219895 194.811112,84.9216327 L172.316269,150.661118 C171.595277,153.080115 171.234786,154.787617 171.234786,155.783675 C171.234786,158.344967 172.460454,159.625593 174.911828,159.625593 C179.093582,159.625593 182.914783,155.1434 186.375546,146.17888 L190.917774,134.226247 L195.027409,134.226247 L189.619994,149.807358 C184.428851,164.463637 174.118817,171.791667 158.689585,171.791667 C151.335464,171.791667 145.639712,170.084165 141.602156,166.669109 C137.564599,163.254054 135.545852,158.202694 135.545852,151.514877 C135.545852,146.96147 136.627324,141.483235 138.7903,135.080006 L158.689585,76.1705973 Z M382.133655,134.226247 L386.261824,134.226247 L380.830023,149.807358 C375.615468,164.463637 365.258939,171.791667 349.760123,171.791667 C340.055258,171.791667 333.319892,168.803538 329.553825,162.827191 C327.670791,159.55443 326.729288,155.854842 326.729288,151.728317 C326.729288,147.032616 327.815638,141.483235 329.988369,135.080006 L348.673763,79.7990754 C349.687704,76.953196 350.194667,74.6765267 350.194667,72.968999 C350.194667,71.2614714 349.615281,70.4077204 348.456491,70.4077204 C343.96618,70.4077204 338.317164,75.7436642 331.509273,86.4157119 C324.701382,97.0877596 317.459054,114.447363 309.78207,138.495044 L300.873917,168.803508 L262.199497,168.803508 L288.27214,79.7990754 C288.561837,78.9453116 288.923954,77.735831 289.3585,76.1705973 C289.793046,74.6053637 290.010316,73.3958831 290.010316,72.5421193 C290.010316,71.1191796 289.286083,70.4077204 287.837596,70.4077204 C282.623041,70.4077204 276.792967,76.2061127 270.347198,87.8030712 C263.901429,99.4000297 257.202275,115.656872 250.249535,136.574085 L241.775926,168.803508 L203.318777,168.803508 L229.825965,76.1705973 C230.40536,74.0361878 230.695053,72.2575399 230.695053,70.8346002 C230.695053,69.5539544 230.441571,68.6290575 229.934601,68.0598816 C229.42763,67.4907058 228.594762,67.2061221 227.435972,67.2061221 C223.235359,67.2061221 219.396925,71.6883149 215.920555,80.652835 L210.923298,93.6726681 L206.79513,93.6726681 L212.878746,77.0243569 C215.630873,69.4827765 219.759,63.933395 225.263252,60.3760457 C230.767504,56.8186965 237.06833,55.0400485 244.165918,55.0400485 C251.698053,55.0400485 257.129799,56.8186965 260.46132,60.3760457 C263.792841,63.933395 265.458577,68.6290255 265.458577,74.4630782 C265.458577,77.1666637 264.951614,80.6528136 263.937673,84.9216327 L261.330408,94.5264276 C267.558904,80.5816186 274.366693,70.5144713 281.753979,64.3246836 C289.141265,58.134896 297.976906,55.0400485 308.261166,55.0400485 C321.007855,55.0400485 327.381105,60.7317219 327.381105,72.1152395 C327.381105,76.3840586 326.512025,81.4354187 324.77384,87.2694715 L323.68748,91.3248293 C330.060825,77.6646083 336.832402,68.2022012 344.002415,62.9373244 C351.172427,57.6724475 359.320047,55.0400485 368.445518,55.0400485 C381.481904,55.0400485 388,60.660576 388,71.9017996 C388,76.1706187 386.986074,81.2931247 384.958192,87.2694715 L363.448261,150.661118 C362.724017,153.080115 362.361901,154.787617 362.361901,155.783675 C362.361901,158.344967 363.593097,159.625593 366.055525,159.625593 C370.256139,159.625593 374.094573,155.1434 377.570943,146.17888 L382.133655,134.226247 Z" id="diminuendo" fill="#4F4E4C" fill-rule="nonzero"></path>
                <path d="M169.75,25.3026486 C169.75,18.0132064 172.1563,12.4761171 176.968972,8.69121447 C181.781644,4.90631182 188.138586,3.01388889 196.039988,3.01388889 C202.36111,3.01388889 207.137795,4.20541444 210.370187,6.58850129 C213.602578,8.97158814 215.21875,12.5461648 215.21875,17.3123385 C215.21875,23.7606912 212.704705,29.0174215 207.67654,33.0826873 C202.648375,37.1479531 196.327348,39.1805556 188.71327,39.1805556 C182.53581,39.1805556 177.830955,37.98903 174.598563,35.6059432 C171.366172,33.2228563 169.75,29.7884591 169.75,25.3026486 Z" id="Path" fill="#FDA20B" fill-rule="nonzero"></path>
            </g>
        </g>
    </g>
</svg>