<?xml version="1.0" encoding="UTF-8"?>
<svg width="51px" height="38px" viewBox="0 0 51 38" version="1.1" xmlns="http://www.w3.org/2000/svg" xmlns:xlink="http://www.w3.org/1999/xlink">
    <!-- Generator: Sketch 54.1 (76490) - https://sketchapp.com -->
    <title>Shape</title>
    <desc>Created with Sketch.</desc>
    <g id="Page-2" stroke="none" stroke-width="1" fill="none" fill-rule="evenodd">
        <g id="Home-Copy-6" transform="translate(-1580.000000, -7137.000000)" fill="#6CCBAC" fill-rule="nonzero">
            <g id="envelope-solid" transform="translate(1573.000000, 7137.000000)">
                <path d="M57.0337891,12.5479167 C57.4222656,12.2411458 58,12.528125 58,13.0130208 L58,33.25 C58,35.8723958 55.8583984,38 53.21875,38 L11.78125,38 C9.14160156,38 7,35.8723958 7,33.25 L7,13.0229167 C7,12.528125 7.56777344,12.2510417 7.96621094,12.5578125 C10.1974609,14.2796875 13.1558594,16.4666667 23.3160156,23.7994792 C25.4177734,25.3234375 28.9638672,28.5296875 32.5,28.5098958 C36.0560547,28.5395833 39.671875,25.2640625 41.6939453,23.7994792 C51.8541016,16.4666667 54.8025391,14.2697917 57.0337891,12.5479167 Z M32.5,25.3333333 C34.8109375,25.3729167 38.1378906,22.44375 39.8113281,21.2364583 C53.0294922,11.7067708 54.0355469,10.8755208 57.0835937,8.50052083 C57.6613281,8.05520833 58,7.3625 58,6.63020833 L58,4.75 C58,2.12760417 55.8583984,0 53.21875,0 L11.78125,0 C9.14160156,-2.812565e-15 7,2.12760417 7,4.75 L7,6.63020833 C7,7.3625 7.33867188,8.0453125 7.91640625,8.50052083 C10.9644531,10.865625 11.9705078,11.7067708 25.1886719,21.2364583 C26.8621094,22.44375 30.1890625,25.3729167 32.5,25.3333333 Z" id="Shape"></path>
            </g>
        </g>
    </g>
</svg>