<?xml version="1.0" encoding="UTF-8"?>
<svg width="51px" height="38px" viewBox="0 0 51 38" version="1.1" xmlns="http://www.w3.org/2000/svg" xmlns:xlink="http://www.w3.org/1999/xlink">
    <!-- Generator: Sketch 54.1 (76490) - https://sketchapp.com -->
    <title>Shape Copy 3</title>
    <desc>Created with Sketch.</desc>
    <g id="Page-2" stroke="none" stroke-width="1" fill="none" fill-rule="evenodd">
        <g id="Home-Copy-6" transform="translate(-1573.000000, -7295.000000)" fill="#FFE781" fill-rule="nonzero">
            <g id="envelope-solid" transform="translate(1573.000000, 7137.000000)">
                <path d="M50.0337891,170.547917 C50.4222656,170.241146 51,170.528125 51,171.013021 L51,191.25 C51,193.872396 48.8583984,196 46.21875,196 L4.78125,196 C2.14160156,196 0,193.872396 0,191.25 L0,171.022917 C0,170.528125 0.567773437,170.251042 0.966210937,170.557812 C3.19746094,172.279687 6.15585937,174.466667 16.3160156,181.799479 C18.4177734,183.323438 21.9638672,186.529687 25.5,186.509896 C29.0560547,186.539583 32.671875,183.264062 34.6939453,181.799479 C44.8541016,174.466667 47.8025391,172.269792 50.0337891,170.547917 Z M25.5,183.333333 C27.8109375,183.372917 31.1378906,180.44375 32.8113281,179.236458 C46.0294922,169.706771 47.0355469,168.875521 50.0835937,166.500521 C50.6613281,166.055208 51,165.3625 51,164.630208 L51,162.75 C51,160.127604 48.8583984,158 46.21875,158 L4.78125,158 C2.14160156,158 0,160.127604 0,162.75 L0,164.630208 C0,165.3625 0.338671875,166.045312 0.91640625,166.500521 C3.96445312,168.865625 4.97050781,169.706771 18.1886719,179.236458 C19.8621094,180.44375 23.1890625,183.372917 25.5,183.333333 Z" id="Shape-Copy-3"></path>
            </g>
        </g>
    </g>
</svg>