<?xml version="1.0" encoding="UTF-8"?>
<svg width="38px" height="38px" viewBox="0 0 38 38" version="1.1" xmlns="http://www.w3.org/2000/svg" xmlns:xlink="http://www.w3.org/1999/xlink">
    <!-- Generator: Sketch 54.1 (76490) - https://sketchapp.com -->
    <title>instagram-brands</title>
    <desc>Created with Sketch.</desc>
    <g id="Page-2" stroke="none" stroke-width="1" fill="none" fill-rule="evenodd">
        <g id="Home-Copy-6" transform="translate(-1491.000000, -7137.000000)" fill="#6CCBAC" fill-rule="nonzero">
            <g id="Social" transform="translate(1298.000000, 7137.000000)">
                <g id="instagram-brands" transform="translate(193.240602, 0.392857)" class="icono">
                    <path d="M18.8731707,9.21333121 C13.5407244,9.21333121 9.23955315,13.5100939 9.23955315,18.8370745 C9.23955315,24.164055 13.5407244,28.4608177 18.8731707,28.4608177 C24.205617,28.4608177 28.5067883,24.164055 28.5067883,18.8370745 C28.5067883,13.5100939 24.205617,9.21333121 18.8731707,9.21333121 Z M18.8731707,25.0937639 C15.4272031,25.0937639 12.6100616,22.2878858 12.6100616,18.8370745 C12.6100616,15.3862631 15.4188187,12.580385 18.8731707,12.580385 C22.3275227,12.580385 25.1362798,15.3862631 25.1362798,18.8370745 C25.1362798,22.2878858 22.3191384,25.0937639 18.8731707,25.0937639 Z M37.5283484,11.0978762 C37.7044197,14.1969058 37.7044197,23.4772431 37.5283484,26.5762727 C37.3774301,29.5831689 36.6899134,32.2466592 34.4932138,34.4411072 C32.2965143,36.643931 29.6302911,37.3307429 26.6203097,37.4731308 C23.5181003,37.6490216 14.2198568,37.6490216 11.1176474,37.4731308 C8.10766597,37.3223672 5.44982717,36.6355552 3.24474326,34.4411072 C1.03965934,32.2466592 0.352142679,29.5831689 0.209608737,26.5762727 C0.033537398,23.4772431 0.033537398,14.1885301 0.209608737,11.0895005 C0.360527028,8.0826042 1.03965934,5.4191139 3.24474326,3.22466592 C5.44982717,1.03021794 8.11605032,0.343405982 11.1176474,0.201018136 C14.2198568,0.0251272669 23.5181003,0.0251272669 26.6203097,0.201018136 C29.6302911,0.351781737 32.2965143,1.0385937 34.4932138,3.23304168 C36.6982978,5.42748966 37.3858144,8.09097996 37.5283484,11.0978762 Z M31.1478584,8.8196707 C31.1478584,7.58005886 30.1417365,6.57496818 28.9008527,6.57496818 C27.659969,6.57496818 26.6538471,7.58005886 26.6538471,8.8196707 C26.6538471,10.0592825 27.6515846,11.0643732 28.9008527,11.0643732 C30.1417365,11.0643732 31.1478584,10.0676583 31.1478584,8.8196707 Z" id="Combined-Shape"></path>
                </g>
            </g>
        </g>
    </g>
</svg>