<?xml version="1.0" encoding="UTF-8"?>
<svg width="38px" height="39px" viewBox="0 0 38 39" version="1.1" xmlns="http://www.w3.org/2000/svg" xmlns:xlink="http://www.w3.org/1999/xlink">
    <!-- Generator: Sketch 54.1 (76490) - https://sketchapp.com -->
    <title>Shape Copy 2</title>
    <desc>Created with Sketch.</desc>
    <g id="Page-2" stroke="none" stroke-width="1" fill="none" fill-rule="evenodd">
        <g id="Home-Copy-6" transform="translate(-1300.000000, -7297.000000)" fill="#FFE781" fill-rule="nonzero">
            <g id="Social" transform="translate(1298.000000, 7137.000000)">
                <g id="linkedin-brands" transform="translate(0.000000, 0.696429)">
                    <path d="M37.0346033,160 L4.6865477,160 C3.20431449,160 2,161.217195 2,162.711408 L2,194.895735 C2,196.389947 3.20431449,197.607143 4.6865477,197.607143 L37.0346033,197.607143 C38.5168365,197.607143 39.7295727,196.389947 39.7295727,194.895735 L39.7295727,162.711408 C39.7295727,161.217195 38.5168365,160 37.0346033,160 Z M13.4030896,192.234694 L7.81102795,192.234694 L7.81102795,174.287357 L13.4115114,174.287357 L13.4115114,192.234694 L13.4030896,192.234694 Z M10.6070588,171.836177 C8.81321972,171.836177 7.36467362,170.383937 7.36467362,168.604313 C7.36467362,166.824689 8.81321972,165.372449 10.6070588,165.372449 C12.3924761,165.372449 13.8494439,166.824689 13.8494439,168.604313 C13.8494439,170.392331 12.4008978,171.836177 10.6070588,171.836177 L10.6070588,171.836177 Z M34.3648991,192.234694 L28.7728374,192.234694 L28.7728374,183.504464 C28.7728374,181.42264 28.7307285,178.74481 25.8673235,178.74481 C22.9533877,178.74481 22.5070334,181.011312 22.5070334,183.353364 L22.5070334,192.234694 L16.9149717,192.234694 L16.9149717,174.287357 L22.2796454,174.287357 L22.2796454,176.738536 L22.3554414,176.738536 C23.1049798,175.328268 24.9325059,173.842451 27.6527408,173.842451 C33.3121767,173.842451 34.3648991,177.561193 34.3648991,182.396397 L34.3648991,192.234694 L34.3648991,192.234694 Z" id="Shape-Copy-2"></path>
                </g>
            </g>
        </g>
    </g>
</svg>