<?xml version="1.0" encoding="UTF-8"?>
<svg width="38px" height="39px" viewBox="0 0 38 39" version="1.1" xmlns="http://www.w3.org/2000/svg" xmlns:xlink="http://www.w3.org/1999/xlink">
    <!-- Generator: Sketch 54.1 (76490) - https://sketchapp.com -->
    <title>Shape</title>
    <desc>Created with Sketch.</desc>
    <g id="Page-2" stroke="none" stroke-width="1" fill="none" fill-rule="evenodd">
        <g id="Home-Copy-6" transform="translate(-1298.000000, -7137.000000)" fill="#6CCBAC" fill-rule="nonzero">
            <g id="Social" transform="translate(1298.000000, 7137.000000)">
                <g id="linkedin-brands" transform="translate(0.000000, 0.696429)">
                    <path d="M35.0346033,-7.85149723e-13 L2.6865477,-7.85149723e-13 C1.20431449,-7.85149723e-13 1.03028697e-13,1.21719547 1.03028697e-13,2.71140784 L1.03028697e-13,34.895735 C1.03028697e-13,36.3899474 1.20431449,37.6071429 2.6865477,37.6071429 L35.0346033,37.6071429 C36.5168365,37.6071429 37.7295727,36.3899474 37.7295727,34.895735 L37.7295727,2.71140784 C37.7295727,1.21719547 36.5168365,-7.85149723e-13 35.0346033,-7.85149723e-13 Z M11.4030896,32.2346939 L5.81102795,32.2346939 L5.81102795,14.2873565 L11.4115114,14.2873565 L11.4115114,32.2346939 L11.4030896,32.2346939 Z M8.60705878,11.8361767 C6.81321972,11.8361767 5.36467362,10.3839365 5.36467362,8.60431282 C5.36467362,6.82468909 6.81321972,5.37244898 8.60705878,5.37244898 C10.3924761,5.37244898 11.8494439,6.82468909 11.8494439,8.60431282 C11.8494439,10.392331 10.4008978,11.8361767 8.60705878,11.8361767 L8.60705878,11.8361767 Z M32.3648991,32.2346939 L26.7728374,32.2346939 L26.7728374,23.5044643 C26.7728374,21.4226403 26.7307285,18.7448103 23.8673235,18.7448103 C20.9533877,18.7448103 20.5070334,21.0113122 20.5070334,23.3533642 L20.5070334,32.2346939 L14.9149717,32.2346939 L14.9149717,14.2873565 L20.2796454,14.2873565 L20.2796454,16.7385364 L20.3554414,16.7385364 C21.1049798,15.3282685 22.9325059,13.8424506 25.6527408,13.8424506 C31.3121767,13.8424506 32.3648991,17.5611926 32.3648991,22.3963967 L32.3648991,32.2346939 L32.3648991,32.2346939 Z" id="Shape"></path>
                </g>
            </g>
        </g>
    </g>
</svg>