<?xml version="1.0" encoding="UTF-8"?>
<svg width="56px" height="39px" viewBox="0 0 56 39" version="1.1" xmlns="http://www.w3.org/2000/svg" xmlns:xlink="http://www.w3.org/1999/xlink">
    <!-- Generator: Sketch 54.1 (76490) - https://sketchapp.com -->
    <title>youtube-brands</title>
    <desc>Created with Sketch.</desc>
    <g id="Page-2" stroke="none" stroke-width="1" fill="none" fill-rule="evenodd">
        <g id="Home-Copy-6" transform="translate(-1386.000000, -7137.000000)" fill="#6CCBAC" fill-rule="nonzero">
            <g id="Social" transform="translate(1298.000000, 7137.000000)">
                <g id="youtube-brands" transform="translate(88.729323, 0.000000)">
                    <path d="M53.2705689,5.9496252 C52.6459272,3.6077209 50.8055166,1.76331035 48.468754,1.1373832 C44.233204,7.2475359e-13 27.2491359,7.2475359e-13 27.2491359,7.2475359e-13 C27.2491359,7.2475359e-13 10.2651672,7.2475359e-13 6.02951773,1.1373832 C3.69275516,1.76340938 1.85234454,3.6077209 1.22770286,5.9496252 C0.0927862911,10.1944629 0.0927862911,19.0509211 0.0927862911,19.0509211 C0.0927862911,19.0509211 0.0927862911,27.9073793 1.22770286,32.152217 C1.85234454,34.4941213 3.69275516,36.2616896 6.02951773,36.8876168 C10.2651672,38.025 27.2491359,38.025 27.2491359,38.025 C27.2491359,38.025 44.2331046,38.025 48.468754,36.8876168 C50.8055166,36.2616896 52.6459272,34.4941213 53.2705689,32.152217 C54.4054855,27.9073793 54.4054855,19.0509211 54.4054855,19.0509211 C54.4054855,19.0509211 54.4054855,10.1944629 53.2705689,5.9496252 Z M21.6943896,27.0919213 L21.6943896,11.0099209 L35.8896976,19.0511191 L21.6943896,27.0919213 Z" id="Shape"></path>
                </g>
            </g>
        </g>
    </g>
</svg>