<?xml version="1.0" encoding="UTF-8"?>
<svg width="56px" height="39px" viewBox="0 0 56 39" version="1.1" xmlns="http://www.w3.org/2000/svg" xmlns:xlink="http://www.w3.org/1999/xlink">
    <!-- Generator: Sketch 54.1 (76490) - https://sketchapp.com -->
    <title>Shape Copy</title>
    <desc>Created with Sketch.</desc>
    <g id="Page-2" stroke="none" stroke-width="1" fill="none" fill-rule="evenodd">
        <g id="Home-Copy-6" transform="translate(-1388.000000, -7297.000000)" fill="#FFE781" fill-rule="nonzero">
            <g id="Social" transform="translate(1298.000000, 7137.000000)">
                <g id="youtube-brands" transform="translate(88.729323, 0.000000)">
                    <path d="M55.2705689,165.949625 C54.6459272,163.607721 52.8055166,161.76331 50.468754,161.137383 C46.233204,160 29.2491359,160 29.2491359,160 C29.2491359,160 12.2651672,160 8.02951773,161.137383 C5.69275516,161.763409 3.85234454,163.607721 3.22770286,165.949625 C2.09278629,170.194463 2.09278629,179.050921 2.09278629,179.050921 C2.09278629,179.050921 2.09278629,187.907379 3.22770286,192.152217 C3.85234454,194.494121 5.69275516,196.26169 8.02951773,196.887617 C12.2651672,198.025 29.2491359,198.025 29.2491359,198.025 C29.2491359,198.025 46.2331046,198.025 50.468754,196.887617 C52.8055166,196.26169 54.6459272,194.494121 55.2705689,192.152217 C56.4054855,187.907379 56.4054855,179.050921 56.4054855,179.050921 C56.4054855,179.050921 56.4054855,170.194463 55.2705689,165.949625 Z M23.6943896,187.091921 L23.6943896,171.009921 L37.8896976,179.051119 L23.6943896,187.091921 Z" id="Shape-Copy"></path>
                </g>
            </g>
        </g>
    </g>
</svg>